<svg width="25" height="24" viewBox="0 0 25 24" fill="none" xmlns="http://www.w3.org/2000/svg">
<mask id="mask0_674_1860" style="mask-type:alpha" maskUnits="userSpaceOnUse" x="0" y="0" width="25" height="24">
<rect x="0.5" width="24" height="24" fill="#D9D9D9"/>
</mask>
<g mask="url(#mask0_674_1860)">
<path d="M12.5 22C11.1167 22 9.81667 21.7375 8.6 21.2125C7.38333 20.6875 6.325 19.975 5.425 19.075C4.525 18.175 3.8125 17.1167 3.2875 15.9C2.7625 14.6833 2.5 13.3833 2.5 12H4.5C4.5 13.9167 5.10417 15.6083 6.3125 17.075C7.52083 18.5417 9.06667 19.4667 10.95 19.85L9.5 18.4L10.9 17L15.45 21.55C14.9667 21.7167 14.4792 21.8333 13.9875 21.9C13.4958 21.9667 13 22 12.5 22ZM13 15V9H16C16.2833 9 16.5208 9.09583 16.7125 9.2875C16.9042 9.47917 17 9.71667 17 10V14C17 14.2833 16.9042 14.5208 16.7125 14.7125C16.5208 14.9042 16.2833 15 16 15H13ZM8 15V13.5H10.5V12.5H9V11.5H10.5V10.5H8V9H11C11.2833 9 11.5208 9.09583 11.7125 9.2875C11.9042 9.47917 12 9.71667 12 10V14C12 14.2833 11.9042 14.5208 11.7125 14.7125C11.5208 14.9042 11.2833 15 11 15H8ZM14.5 13.5H15.5V10.5H14.5V13.5ZM20.5 12C20.5 10.0833 19.8958 8.39167 18.6875 6.925C17.4792 5.45833 15.9333 4.53333 14.05 4.15L15.5 5.6L14.1 7L9.55 2.45C10.0333 2.28333 10.5208 2.16667 11.0125 2.1C11.5042 2.03333 12 2 12.5 2C13.8833 2 15.1833 2.2625 16.4 2.7875C17.6167 3.3125 18.675 4.025 19.575 4.925C20.475 5.825 21.1875 6.88333 21.7125 8.1C22.2375 9.31667 22.5 10.6167 22.5 12H20.5Z" fill="#F19F2C"/>
</g>
</svg>
