<svg width="25" height="24" viewBox="0 0 25 24" fill="none" xmlns="http://www.w3.org/2000/svg">
<mask id="mask0_674_1857" style="mask-type:alpha" maskUnits="userSpaceOnUse" x="0" y="0" width="25" height="24">
<rect x="0.5" width="24" height="24" fill="#D9D9D9"/>
</mask>
<g mask="url(#mask0_674_1857)">
<path d="M7.3 13L12.5 16L17.7 13L13.5 10.575V14H11.5V10.575L7.3 13ZM11.5 8.275V7.85C10.7667 7.63333 10.1667 7.22083 9.7 6.6125C9.23333 6.00417 9 5.3 9 4.5C9 3.53333 9.34167 2.70833 10.025 2.025C10.7083 1.34167 11.5333 1 12.5 1C13.4667 1 14.2917 1.34167 14.975 2.025C15.6583 2.70833 16 3.53333 16 4.5C16 5.3 15.7667 6.00417 15.3 6.6125C14.8333 7.22083 14.2333 7.63333 13.5 7.85V8.275L20.5 12.3C20.8167 12.4833 21.0625 12.7292 21.2375 13.0375C21.4125 13.3458 21.5 13.6833 21.5 14.05V15.95C21.5 16.3167 21.4125 16.6542 21.2375 16.9625C21.0625 17.2708 20.8167 17.5167 20.5 17.7L13.5 21.725C13.1833 21.9083 12.85 22 12.5 22C12.15 22 11.8167 21.9083 11.5 21.725L4.5 17.7C4.18333 17.5167 3.9375 17.2708 3.7625 16.9625C3.5875 16.6542 3.5 16.3167 3.5 15.95V14.05C3.5 13.6833 3.5875 13.3458 3.7625 13.0375C3.9375 12.7292 4.18333 12.4833 4.5 12.3L11.5 8.275ZM11.5 17.725L5.5 14.275V15.95L12.5 20L19.5 15.95V14.275L13.5 17.725C13.1833 17.9083 12.85 18 12.5 18C12.15 18 11.8167 17.9083 11.5 17.725ZM12.5 6C12.9167 6 13.2708 5.85417 13.5625 5.5625C13.8542 5.27083 14 4.91667 14 4.5C14 4.08333 13.8542 3.72917 13.5625 3.4375C13.2708 3.14583 12.9167 3 12.5 3C12.0833 3 11.7292 3.14583 11.4375 3.4375C11.1458 3.72917 11 4.08333 11 4.5C11 4.91667 11.1458 5.27083 11.4375 5.5625C11.7292 5.85417 12.0833 6 12.5 6Z" fill="#1ABCFE"/>
</g>
</svg>
