<svg width="24" height="24" viewBox="0 0 24 24" fill="none" xmlns="http://www.w3.org/2000/svg">
<mask id="mask0_373_351" style="mask-type:alpha" maskUnits="userSpaceOnUse" x="0" y="0" width="24" height="24">
<rect width="24" height="24" fill="#D9D9D9"/>
</mask>
<g mask="url(#mask0_373_351)">
<path d="M4 21C3.16667 21 2.45833 20.7083 1.875 20.125C1.29167 19.5417 1 18.8333 1 18C1 17.35 1.1875 16.7667 1.5625 16.25C1.9375 15.7333 2.41667 15.375 3 15.175V8.825C2.41667 8.625 1.9375 8.26667 1.5625 7.75C1.1875 7.23333 1 6.65 1 6C1 5.16667 1.29167 4.45833 1.875 3.875C2.45833 3.29167 3.16667 3 4 3C4.83333 3 5.54167 3.29167 6.125 3.875C6.70833 4.45833 7 5.16667 7 6C7 6.65 6.8125 7.23333 6.4375 7.75C6.0625 8.26667 5.58333 8.625 5 8.825V11H11V8.825C10.4167 8.625 9.9375 8.26667 9.5625 7.75C9.1875 7.23333 9 6.65 9 6C9 5.16667 9.29167 4.45833 9.875 3.875C10.4583 3.29167 11.1667 3 12 3C12.8333 3 13.5417 3.29167 14.125 3.875C14.7083 4.45833 15 5.16667 15 6C15 6.65 14.8125 7.23333 14.4375 7.75C14.0625 8.26667 13.5833 8.625 13 8.825V11H18C18.2833 11 18.5208 10.9042 18.7125 10.7125C18.9042 10.5208 19 10.2833 19 10V8.825C18.4167 8.625 17.9375 8.26667 17.5625 7.75C17.1875 7.23333 17 6.65 17 6C17 5.16667 17.2917 4.45833 17.875 3.875C18.4583 3.29167 19.1667 3 20 3C20.8333 3 21.5417 3.29167 22.125 3.875C22.7083 4.45833 23 5.16667 23 6C23 6.65 22.8125 7.23333 22.4375 7.75C22.0625 8.26667 21.5833 8.625 21 8.825V10C21 10.8333 20.7083 11.5417 20.125 12.125C19.5417 12.7083 18.8333 13 18 13H13V15.175C13.5833 15.375 14.0625 15.7333 14.4375 16.25C14.8125 16.7667 15 17.35 15 18C15 18.8333 14.7083 19.5417 14.125 20.125C13.5417 20.7083 12.8333 21 12 21C11.1667 21 10.4583 20.7083 9.875 20.125C9.29167 19.5417 9 18.8333 9 18C9 17.35 9.1875 16.7667 9.5625 16.25C9.9375 15.7333 10.4167 15.375 11 15.175V13H5V15.175C5.58333 15.375 6.0625 15.7333 6.4375 16.25C6.8125 16.7667 7 17.35 7 18C7 18.8333 6.70833 19.5417 6.125 20.125C5.54167 20.7083 4.83333 21 4 21ZM4 19C4.28333 19 4.52083 18.9042 4.7125 18.7125C4.90417 18.5208 5 18.2833 5 18C5 17.7167 4.90417 17.4792 4.7125 17.2875C4.52083 17.0958 4.28333 17 4 17C3.71667 17 3.47917 17.0958 3.2875 17.2875C3.09583 17.4792 3 17.7167 3 18C3 18.2833 3.09583 18.5208 3.2875 18.7125C3.47917 18.9042 3.71667 19 4 19ZM4 7C4.28333 7 4.52083 6.90417 4.7125 6.7125C4.90417 6.52083 5 6.28333 5 6C5 5.71667 4.90417 5.47917 4.7125 5.2875C4.52083 5.09583 4.28333 5 4 5C3.71667 5 3.47917 5.09583 3.2875 5.2875C3.09583 5.47917 3 5.71667 3 6C3 6.28333 3.09583 6.52083 3.2875 6.7125C3.47917 6.90417 3.71667 7 4 7ZM12 19C12.2833 19 12.5208 18.9042 12.7125 18.7125C12.9042 18.5208 13 18.2833 13 18C13 17.7167 12.9042 17.4792 12.7125 17.2875C12.5208 17.0958 12.2833 17 12 17C11.7167 17 11.4792 17.0958 11.2875 17.2875C11.0958 17.4792 11 17.7167 11 18C11 18.2833 11.0958 18.5208 11.2875 18.7125C11.4792 18.9042 11.7167 19 12 19ZM12 7C12.2833 7 12.5208 6.90417 12.7125 6.7125C12.9042 6.52083 13 6.28333 13 6C13 5.71667 12.9042 5.47917 12.7125 5.2875C12.5208 5.09583 12.2833 5 12 5C11.7167 5 11.4792 5.09583 11.2875 5.2875C11.0958 5.47917 11 5.71667 11 6C11 6.28333 11.0958 6.52083 11.2875 6.7125C11.4792 6.90417 11.7167 7 12 7ZM20 7C20.2833 7 20.5208 6.90417 20.7125 6.7125C20.9042 6.52083 21 6.28333 21 6C21 5.71667 20.9042 5.47917 20.7125 5.2875C20.5208 5.09583 20.2833 5 20 5C19.7167 5 19.4792 5.09583 19.2875 5.2875C19.0958 5.47917 19 5.71667 19 6C19 6.28333 19.0958 6.52083 19.2875 6.7125C19.4792 6.90417 19.7167 7 20 7Z" fill="#E3E3E3"/>
</g>
</svg>
