<svg width="40" height="40" viewBox="0 0 40 40" fill="none" xmlns="http://www.w3.org/2000/svg">
<g clip-path="url(#clip0_674_1600)">
<path d="M15.6922 22.1529C15.8376 18.9594 17.1081 16.1462 19.025 14.1517C20.9047 12.1929 23.4347 10.9956 26.1953 10.9956C28.9531 10.9956 31.4833 12.1929 33.3644 14.1517C35.2797 16.146 36.5503 18.9594 36.6972 22.1494C36.8425 25.4306 35.7709 28.4787 33.8912 30.7381C31.9745 33.0363 29.2481 34.4785 26.1953 34.4785C23.1425 34.4785 20.4108 33.0363 18.4953 30.7381C16.6142 28.4785 15.5453 25.4304 15.6922 22.1529Z" fill="white"/>
<path d="M20.8075 22.4377C20.8821 20.7992 21.5341 19.3556 22.5175 18.3323C23.4821 17.3273 24.7802 16.7129 26.1967 16.7129C27.6117 16.7129 28.91 17.3273 29.8752 18.3323C30.858 19.3556 31.5099 20.7992 31.5852 22.4362C31.6599 24.1196 31.1102 25.6837 30.1455 26.8429C29.1621 28.0221 27.7632 28.7621 26.1967 28.7621C24.6303 28.7621 23.2286 28.0221 22.2458 26.8429C21.2807 25.6837 20.7322 24.1196 20.8075 22.4377Z" fill="#265787"/>
<path d="M12.2516 25.8038C12.261 26.4462 12.4274 27.695 12.6772 28.67C13.202 30.734 14.0924 32.6437 15.3313 34.3263C16.6027 36.0562 18.1681 37.4456 19.9766 38.4319C21.8772 39.4679 23.9366 39.9958 26.0756 39.9915C28.2113 39.9879 30.2708 39.4496 32.1714 38.4058C33.9797 37.4098 35.5438 36.0144 36.8131 34.2838C38.0513 32.594 38.9402 30.6812 39.4666 28.6171C39.7311 27.5742 39.8983 26.5158 39.9653 25.4537C40.0309 24.4059 40.0032 23.3525 39.8828 22.3121C39.6472 20.2715 39.0735 18.3569 38.1902 16.6115C37.3824 15.0077 36.3411 13.6037 35.1028 12.4217L35.1056 12.4192L22.6103 0.61058C22.5989 0.600195 22.5897 0.589041 22.5777 0.579426C21.758 -0.195189 20.3792 -0.192497 19.4777 0.583657C18.5661 1.36866 18.4617 2.66693 19.273 3.48558L19.2695 3.49L24.4813 8.70616L8.59642 8.72693H8.57517C7.26221 8.72885 6.00017 9.78904 5.75017 11.1288C5.49345 12.4938 6.38533 13.6262 7.75049 13.6323L7.7483 13.6383L15.7999 13.619L1.43236 27.1923C1.41408 27.2088 1.39424 27.2262 1.37736 27.2427C0.0220485 28.52 -0.416077 30.644 0.437517 31.9881C1.30392 33.355 3.14611 33.3575 4.51549 31.996L12.3567 24.0977C12.3567 24.0977 12.2424 25.1638 12.2516 25.8038ZM32.4008 29.3742C30.7852 31.4002 28.5231 32.5488 26.0758 32.555C23.6247 32.5602 21.3628 31.4217 19.7472 29.3994C18.9577 28.4138 18.3778 27.2798 18.02 26.0719C17.6682 24.8833 17.5328 23.614 17.6236 22.3538C17.7089 21.1112 18.0095 19.926 18.4892 18.8535C18.9605 17.7994 19.6095 16.8467 20.4111 16.041C21.9814 14.466 23.981 13.6131 26.072 13.6096C28.1655 13.6062 30.1635 14.4512 31.7355 16.0212C32.5355 16.8233 33.1839 17.7725 33.6552 18.825C34.1411 19.9032 34.4372 21.0952 34.5244 22.3235C34.6138 23.5828 34.478 24.851 34.1264 26.0388C33.768 27.2504 33.1902 28.3844 32.4008 29.3742Z" fill="#EA7600"/>
</g>
<defs>
<clipPath id="clip0_674_1600">
<rect width="40" height="40" fill="white"/>
</clipPath>
</defs>
</svg>
