<svg width="40" height="40" viewBox="0 0 40 40" fill="none" xmlns="http://www.w3.org/2000/svg">
<path d="M39.245 18.2173L21.78 0.754803C21.5409 0.515557 21.257 0.32577 20.9445 0.196285C20.632 0.0667991 20.297 0.000152588 19.9588 0.000152588C19.6205 0.000152588 19.2856 0.0667991 18.9731 0.196285C18.6606 0.32577 18.3766 0.515557 18.1375 0.754803L14.5125 4.3798L19.1125 8.9798C19.655 8.79458 20.2387 8.7656 20.7969 8.89618C21.3551 9.02675 21.8653 9.31163 22.2694 9.71828C22.6734 10.1249 22.955 10.637 23.082 11.196C23.209 11.755 23.1762 12.3385 22.9875 12.8798L27.42 17.3148C28.0758 17.0839 28.7907 17.0832 29.4469 17.3128C30.1031 17.5424 30.6616 17.9887 31.0304 18.5781C31.3991 19.1674 31.5562 19.8648 31.4757 20.5554C31.3952 21.246 31.082 21.8885 30.5875 22.3773C30.087 22.8809 29.4271 23.1951 28.7207 23.2662C28.0142 23.3374 27.3049 23.161 26.714 22.7673C26.1232 22.3736 25.6873 21.7869 25.4809 21.1075C25.2746 20.4281 25.3105 19.6982 25.5825 19.0423L21.45 14.9073V25.7898C22.0782 26.1007 22.5808 26.6176 22.8741 27.2541C23.1673 27.8907 23.2336 28.6086 23.0618 29.2881C22.89 29.9676 22.4905 30.5676 21.9298 30.9883C21.3692 31.409 20.6814 31.6248 19.9809 31.5997C19.2805 31.5747 18.6098 31.3104 18.0806 30.8508C17.5514 30.3913 17.1957 29.7642 17.0728 29.0742C16.9499 28.3841 17.0672 27.6728 17.4051 27.0588C17.7431 26.4448 18.2813 25.9651 18.93 25.6998V14.7173C18.5557 14.5639 18.2155 14.338 17.929 14.0525C17.6424 13.7671 17.4152 13.4277 17.2604 13.054C17.1057 12.6803 17.0264 12.2797 17.0272 11.8752C17.0279 11.4707 17.1088 11.0704 17.265 10.6973L12.7325 6.1623L0.757519 18.1373C0.518273 18.3764 0.328486 18.6604 0.199001 18.9729C0.0695152 19.2853 0.00286865 19.6203 0.00286865 19.9586C0.00286865 20.2968 0.0695152 20.6318 0.199001 20.9443C0.328486 21.2568 0.518273 21.5407 0.757519 21.7798L18.2225 39.2448C18.4616 39.484 18.7456 39.6738 19.0581 39.8033C19.3706 39.9328 19.7055 39.9995 20.0438 39.9995C20.382 39.9995 20.717 39.9328 21.0295 39.8033C21.342 39.6738 21.6259 39.484 21.865 39.2448L39.2475 21.8623C39.7301 21.379 40.0011 20.724 40.0011 20.0411C40.0011 19.3581 39.7301 18.7031 39.2475 18.2198" fill="#DE4C36"/>
</svg>
