<svg width="40" height="40" viewBox="0 0 40 40" fill="none" xmlns="http://www.w3.org/2000/svg">
<path d="M35.9082 26.2953C35.9082 26.2953 35.8544 25.9703 35.8238 25.9741L29.9416 26.5419C29.7154 26.5629 29.5041 26.6637 29.3455 26.8263C29.1869 26.989 29.0913 27.2027 29.076 27.4294L28.9147 29.7459L24.3628 30.0709L24.0541 27.9709C24.0191 27.7437 23.9042 27.5364 23.7301 27.3863C23.556 27.2363 23.334 27.1532 23.1041 27.1522H16.896C16.6661 27.1533 16.4442 27.2364 16.2701 27.3864C16.0961 27.5365 15.9812 27.7438 15.9463 27.9709L15.6375 30.0709L11.0857 29.7459L10.9244 27.4291C10.909 27.2024 10.8135 26.9887 10.6549 26.826C10.4963 26.6634 10.285 26.5626 10.0588 26.5416L4.17284 25.9741C4.14346 25.9703 4.12034 26.2953 4.08971 26.2953L4.08221 27.5684L9.06784 28.3728L9.23034 30.7094C9.24741 30.9395 9.34646 31.1558 9.50949 31.3191C9.67252 31.4823 9.88871 31.5817 10.1188 31.5991L16.3872 32.0472C16.4114 32.0486 16.4349 32.0495 16.4578 32.0497C16.6873 32.048 16.9086 31.9646 17.0822 31.8145C17.2558 31.6644 17.3702 31.4574 17.405 31.2306L17.7238 29.0697H22.2769L22.5957 31.2306C22.6324 31.4692 22.7572 31.6854 22.9454 31.8365C23.1336 31.9877 23.3716 32.0628 23.6125 32.0472L29.8819 31.5991C30.112 31.5817 30.3283 31.4824 30.4914 31.3191C30.6545 31.1559 30.7536 30.9395 30.7707 30.7094L30.9332 28.3728L35.916 27.5647L35.9082 26.2953Z" fill="white"/>
<path d="M4.08938 16.6944V26.2953C4.1075 26.2953 4.125 26.296 4.14187 26.2975L10.0281 26.8656C10.1772 26.8801 10.3163 26.9469 10.4209 27.0542C10.5254 27.1614 10.5886 27.3022 10.5994 27.4516L10.7812 30.0503L15.9144 30.4166L16.2684 28.0191C16.2906 27.8685 16.3662 27.731 16.4813 27.6315C16.5964 27.5321 16.7435 27.4773 16.8956 27.4772H23.1044C23.2565 27.4773 23.4036 27.5321 23.5187 27.6315C23.6338 27.731 23.7094 27.8685 23.7316 28.0191L24.0856 30.4166L29.22 30.0503L29.4006 27.4516C29.4114 27.3022 29.4746 27.1614 29.5791 27.0542C29.6837 26.9469 29.8228 26.8801 29.9719 26.8656L35.8556 26.2978C35.8727 26.2964 35.8902 26.2956 35.9081 26.2956V25.5281H35.9106V16.6938C36.7394 15.6516 37.5231 14.5003 38.125 13.5325C37.2059 11.9675 36.0803 10.57 34.8766 9.27469C33.7663 9.83664 32.6898 10.4631 31.6528 11.1509C31.1403 10.6406 30.5641 10.2244 29.9966 9.78844C29.4397 9.34157 28.8122 9.01344 28.2166 8.63125C28.3934 7.31157 28.4816 6.01281 28.5166 4.65656C26.9812 3.88282 25.3431 3.37125 23.6866 3.0025C23.025 4.11469 22.4194 5.31813 21.8934 6.495C21.2684 6.39125 20.6409 6.35219 20.0122 6.345V6.34375L20 6.345C19.995 6.34563 19.9928 6.34375 19.9875 6.34375V6.345C19.3594 6.35219 18.7316 6.39125 18.1066 6.495C17.5806 5.31844 16.9753 4.11469 16.3134 3.0025C14.6572 3.37125 13.0187 3.88282 11.4831 4.65656C11.5184 6.01281 11.6066 7.31156 11.7834 8.63157C11.1878 9.01344 10.5603 9.34188 10.0037 9.78844C9.43719 10.2244 8.86 10.6406 8.34719 11.1509C7.31015 10.4631 6.23372 9.83664 5.12344 9.27469C3.91969 10.57 2.79375 11.9678 1.875 13.5328C2.59781 14.6669 3.37281 15.8056 4.08938 16.6944Z" fill="#478CBF"/>
<path d="M30.6275 28.075L30.4457 30.6875C30.435 30.8397 30.3697 30.983 30.2617 31.0909C30.1537 31.1987 30.0104 31.2639 29.8581 31.2744L23.5888 31.7225C23.5744 31.7238 23.5585 31.7238 23.5438 31.7238C23.2325 31.7238 22.9625 31.4956 22.9175 31.1831L22.5575 28.7438H17.4425L17.0825 31.1828C17.0594 31.3409 16.9773 31.4843 16.8528 31.5844C16.7283 31.6845 16.5706 31.7338 16.4113 31.7225L10.1416 31.2744C9.98934 31.2638 9.84605 31.1986 9.73814 31.0906C9.63022 30.9827 9.56497 30.8394 9.5544 30.6872L9.37252 28.0747L4.07971 27.5647C4.08221 28.1334 4.08909 28.7572 4.08909 28.8806C4.08909 34.4703 11.1803 37.1569 19.9891 37.1875H20.011C28.8197 37.1569 35.9081 34.4703 35.9081 28.8806C35.9081 28.755 35.9156 28.1338 35.9178 27.5647L30.6275 28.075Z" fill="#478CBF"/>
<path d="M15.2037 20.5922C15.2037 22.5516 13.6156 24.1394 11.6565 24.1394C9.69842 24.1394 8.11029 22.5512 8.11029 20.5922C8.11029 18.6341 9.69842 17.0472 11.6565 17.0472C13.6159 17.0472 15.2037 18.6341 15.2037 20.5922Z" fill="white"/>
<path d="M14.3506 20.8019C14.3507 21.1111 14.2898 21.4173 14.1715 21.7029C14.0532 21.9886 13.8797 22.2482 13.6611 22.4668C13.4424 22.6853 13.1828 22.8587 12.897 22.9769C12.6113 23.0951 12.3051 23.1558 11.9959 23.1556C11.3716 23.1557 10.7727 22.9078 10.3311 22.4664C9.88957 22.025 9.6414 21.4263 9.64124 20.8019C9.64157 20.1776 9.88981 19.5791 10.3314 19.1378C10.7729 18.6965 11.3717 18.4487 11.9959 18.4488C12.3051 18.4486 12.6112 18.5093 12.8969 18.6274C13.1826 18.7456 13.4422 18.9189 13.6608 19.1374C13.8795 19.356 14.053 19.6154 14.1713 19.901C14.2897 20.1866 14.3506 20.4927 14.3506 20.8019Z" fill="#414042"/>
<path d="M20 24.4616C19.3688 24.4616 18.8588 23.9966 18.8588 23.4241V20.1584C18.8588 19.5862 19.3688 19.1209 20 19.1209C20.63 19.1209 21.1425 19.5862 21.1425 20.1584V23.4241C21.1425 23.9966 20.63 24.4616 20 24.4616ZM24.7963 20.5922C24.7963 22.5516 26.3844 24.1394 28.3435 24.1394C30.3016 24.1394 31.8897 22.5512 31.8897 20.5922C31.8897 18.6341 30.3016 17.0472 28.3435 17.0472C26.3841 17.0472 24.7963 18.6341 24.7963 20.5922Z" fill="white"/>
<path d="M25.6494 20.8019C25.6493 21.111 25.7101 21.417 25.8283 21.7026C25.9466 21.9882 26.1199 22.2477 26.3385 22.4663C26.557 22.6849 26.8165 22.8582 27.102 22.9765C27.3876 23.0948 27.6937 23.1557 28.0028 23.1556C28.627 23.1556 29.2256 22.9076 29.667 22.4663C30.1084 22.0249 30.3564 21.4262 30.3564 20.802C30.3564 20.1778 30.1084 19.5792 29.667 19.1378C29.2256 18.6964 28.627 18.4484 28.0028 18.4484C27.6937 18.4484 27.3877 18.5093 27.1022 18.6276C26.8167 18.7459 26.5573 18.9192 26.3388 19.1378C26.1203 19.3563 25.9469 19.6157 25.8287 19.9013C25.7105 20.1868 25.6493 20.4928 25.6494 20.8019Z" fill="#414042"/>
</svg>
