<svg width="28" height="28" viewBox="0 0 28 28" fill="none" xmlns="http://www.w3.org/2000/svg">
<path d="M5.16425 23.8009L3.19812 1.75H24.8019L22.8331 23.7974L13.9869 26.25L5.16425 23.8009Z" fill="#E44F26"/>
<path d="M14 24.3758L21.1488 22.394L22.8305 3.55347H14V24.3758Z" fill="#F1662A"/>
<path d="M14 11.7311H10.4212L10.1745 8.9617H14V6.25708H7.21875L7.2835 6.98333L7.94763 14.4357H14V11.7311ZM14 18.7547L13.9878 18.7582L10.976 17.9453L10.7835 15.7885H8.06837L8.44725 20.034L13.9878 21.5722L14 21.5687V18.7547Z" fill="#EBEBEB"/>
<path d="M13.9904 11.7311V14.4357H17.3206L17.0074 17.9436L13.9904 18.7573V21.5713L19.5352 20.034L19.5755 19.5772L20.2107 12.4573L20.2772 11.7311H13.9904ZM13.9904 6.25708V8.9617H20.5231L20.5774 8.35446L20.7007 6.98333L20.7655 6.25708H13.9904Z" fill="white"/>
</svg>
