<svg width="40" height="40" viewBox="0 0 40 40" fill="none" xmlns="http://www.w3.org/2000/svg">
<path d="M12.899 30.9217C12.899 30.9217 10.8368 31.809 14.3667 32.1092C18.6431 32.4702 20.8286 32.4185 25.5412 31.7585C25.5412 31.7585 26.7803 32.3333 28.5104 32.8312C17.9462 36.1812 4.60123 32.6371 12.899 30.9217ZM11.6081 26.5502C11.6081 26.5502 9.29513 27.817 12.8276 28.0873C17.3958 28.436 21.0033 28.4645 27.2458 27.5751C27.2458 27.5751 28.1092 28.2228 29.4669 28.577C16.6939 31.3405 2.46716 28.7949 11.6081 26.5502Z" fill="#5382A1"/>
<path d="M22.491 19.1347C25.0941 21.352 21.8071 23.3474 21.8071 23.3474C21.8071 23.3474 28.4166 20.8229 25.3811 17.6615C22.5461 14.7135 20.3719 13.2486 32.1417 8.19815C32.1417 8.19815 13.6671 11.6121 22.491 19.1347Z" fill="#E76F00"/>
<path d="M36.4631 34.1552C36.4631 34.1552 37.9892 35.0854 34.7823 35.8052C28.6845 37.172 9.40228 37.5847 4.04572 35.8597C2.12025 35.24 5.73119 34.3799 6.86697 34.1993C8.0515 34.0093 8.72853 34.0447 8.72853 34.0447C6.58713 32.9286 -5.11256 36.2363 2.78572 37.1835C24.3253 39.768 42.0501 36.0198 36.4631 34.1552ZM13.8906 22.0208C13.8906 22.0208 4.0826 23.7445 10.4174 24.3703C13.0921 24.6353 18.4242 24.5754 23.3909 24.2674C27.4499 24.0142 31.5257 23.4755 31.5257 23.4755C31.5257 23.4755 30.0945 23.929 29.059 24.4521C19.099 26.3903 -0.141936 25.4887 5.39728 23.5061C10.0818 21.8308 13.8906 22.0208 13.8906 22.0208ZM31.4853 29.2973C41.6103 25.4046 36.9288 21.6638 33.6613 22.1679C32.8604 22.2911 32.5034 22.3979 32.5034 22.3979C32.5034 22.3979 32.8007 22.0534 33.3685 21.9043C39.8326 20.2228 44.804 26.8635 31.2818 29.4935C31.2818 29.4937 31.4385 29.3901 31.4853 29.2973Z" fill="#5382A1"/>
<path d="M25.381 0.042886C25.381 0.042886 30.9884 4.19317 20.0628 10.5748C11.3017 15.6941 18.065 18.6129 20.0592 21.9479C14.9451 18.534 11.192 15.5287 13.71 12.7317C17.4054 8.62566 27.6434 6.63514 25.381 0.042886Z" fill="#E76F00"/>
<path d="M14.8856 39.8457C24.6042 40.306 39.5281 39.5903 39.8816 36.1879C39.8816 36.1879 39.2022 37.4778 31.8497 38.5021C23.5547 39.657 13.3241 39.5222 7.2561 38.782C7.25626 38.782 8.49813 39.5427 14.8856 39.8457Z" fill="#5382A1"/>
</svg>
