<svg width="40" height="40" viewBox="0 0 40 40" fill="none" xmlns="http://www.w3.org/2000/svg">
<path d="M11.8992 26.3951L13.1148 32.1815C13.388 33.4953 13.5019 34.4125 13.4563 34.9352C14.1211 32.323 14.5856 29.4762 14.8499 26.3951H16.3116C15.6831 31.4112 14.8541 35.0564 13.8252 37.3303C13.0234 39.0826 12.1452 39.9587 11.1888 39.9587C10.9338 39.9587 10.6194 39.8457 10.2463 39.6213V38.4121C10.4286 38.4513 10.6424 38.4723 10.8884 38.4723C11.3345 38.4723 11.6941 38.2909 11.9677 37.9288C12.2953 37.4877 12.4593 36.9919 12.4593 36.4423C12.4593 36.067 12.3314 35.297 12.0768 34.132L10.383 26.3951H11.8992ZM2.59555 22.8385L4.82211 32.8048H4.83586L7.07609 22.8385H8.90641C9.30719 27.7811 9.54391 32.3034 9.61656 36.4025H8.07344C8.01914 32.5706 7.86875 28.9674 7.62281 25.5922H7.60938L5.25953 36.4025H4.08438L1.74875 25.5922H1.735C1.56172 28.8337 1.45266 32.4369 1.40719 36.4025H0C0.0909375 31.5796 0.318516 27.0587 0.682734 22.8385H2.59555Z" fill="#00758F"/>
<path d="M27.5389 22.6373C29.934 22.6373 31.1316 24.8821 31.1316 29.3695C31.1316 31.808 30.7714 33.65 30.0518 34.8943C29.9221 35.1217 29.7788 35.3182 29.6278 35.5002L31.3228 36.7296L31.3211 36.7295L30.7193 38.2541L28.5121 36.3647C28.1462 36.5237 27.7436 36.6031 27.3049 36.6031C26.1289 36.6031 25.2505 36.1003 24.6697 35.0959C24.0322 33.9849 23.7136 32.2358 23.7136 29.8516C23.7136 27.4268 24.0731 25.5919 24.793 24.3459C25.4486 23.2062 26.3641 22.6373 27.5389 22.6373ZM20.2046 22.657C21.0606 22.657 21.8389 22.993 22.54 23.6627L22.1839 24.8268C21.584 24.4527 20.9925 24.2649 20.4092 24.2649C19.936 24.2649 19.5713 24.432 19.3171 24.7683C19.0614 25.1016 18.9033 25.5304 18.9033 26.0533C18.9033 26.8567 19.2935 27.5535 20.0138 28.1421C20.2499 28.3314 20.485 28.5228 20.7194 28.7165L20.7731 28.7608L20.8001 28.783L20.8539 28.8274L20.8808 28.8496L20.9346 28.8941C21.4799 29.3451 21.993 29.7756 21.993 29.7756C22.7133 30.5257 23.0724 31.3255 23.0724 32.6428C23.0724 33.7931 22.785 34.7374 22.2122 35.4763C21.639 36.2119 20.8689 36.5808 19.9046 36.5808C19.0026 36.5808 18.1285 36.1562 17.2817 35.3143L17.6778 34.1491C18.4065 34.6849 19.0659 34.9526 19.658 34.9526C20.2133 34.9526 20.648 34.7707 20.9624 34.4115C21.2763 34.0496 21.4643 33.545 21.4643 32.9051C21.4643 32.0997 21.0824 31.4112 20.3819 30.8337C20.1626 30.656 19.944 30.4765 19.726 30.2954L19.6724 30.2508C19.5738 30.1691 19.4745 30.0863 19.3772 30.0053L19.3245 29.9613C18.8514 29.5665 18.4424 29.2217 18.4424 29.2217C17.7421 28.4702 17.391 27.6638 17.391 26.3353C17.391 25.2365 17.6528 24.3483 18.1758 23.6727C18.7 22.9955 19.3763 22.657 20.2046 22.657ZM33.9463 22.8385V34.734H36.8556V36.4025H32.4709V22.8385H33.9463ZM38.4721 34.7392V35.0211H38.1523V36.401H37.9078V35.0211H37.5755V34.7392H38.4722H38.4721ZM39.0628 34.7392L39.3699 35.872L39.652 34.7392H39.9986V36.401H39.7681V35.1363L39.4471 36.401H39.2809L38.9592 35.1363H38.9469V36.401H38.7288V34.7392H39.0628H39.0628ZM27.3883 24.3053C25.9769 24.3053 25.2708 26.0142 25.2708 29.4297C25.2708 31.3861 25.4579 32.8048 25.8314 33.6891C26.1774 34.5074 26.7192 34.9158 27.4569 34.9158C28.8683 34.9158 29.5743 33.1936 29.5743 29.7508C29.5743 27.8218 29.3872 26.4153 29.0142 25.5306C28.6678 24.7141 28.1263 24.3053 27.3884 24.3053H27.3883Z" fill="#F29111"/>
<path d="M23.6889 0.84039C24.1571 -0.847404 25.7942 0.430762 26.4295 1.02033C26.5852 1.16784 26.7638 1.47947 26.9424 1.59466C27.2209 1.61071 27.4992 1.64268 27.7781 1.65976C28.3014 1.84016 28.7916 1.98755 29.2039 2.33208C31.1202 3.98767 32.3676 5.67477 33.5156 8.46148C33.7609 9.05174 33.8835 9.69048 34.0839 10.3292C34.362 11.2813 34.6745 12.2807 34.9974 13.181C35.1419 13.6078 35.2537 14.0825 35.4544 14.4429C35.5327 14.6077 35.7553 14.6563 35.8884 14.7548C36.2562 15.0341 36.7018 15.2461 37.0477 15.5739C37.6938 16.1649 38.3184 16.869 38.8862 17.59C39.0978 17.8682 39.242 18.2622 39.4437 18.5565V18.705C39.2647 18.7856 39.0863 18.8681 38.9078 18.9343C38.5179 19.0812 38.1725 19.048 37.7942 19.195C37.5605 19.2945 37.2702 19.4257 37.0251 19.4591L37.0477 19.4925C37.192 20.0971 37.9723 20.5888 38.3292 20.9504C38.7626 21.4093 39.1642 21.9659 39.4875 22.6051C39.5992 22.7682 39.7108 22.9166 39.8219 23.0792C39.8995 23.2441 39.9214 23.4572 40 23.6042V23.6539C39.913 23.6089 39.8504 23.5229 39.7911 23.4331L39.7557 23.3788C39.7203 23.325 39.6846 23.272 39.6439 23.2284C39.398 22.9819 39.1538 22.6872 38.9078 22.458C38.485 22.0645 37.9946 21.836 37.5605 21.441C37.315 21.2116 37.081 20.9504 36.847 20.688C36.6349 20.4579 36.4013 20.0162 36.2681 19.6884C36.1895 19.5073 36.1788 19.2945 36.0891 19.1635C36.1051 18.9447 36.2417 18.8797 36.3796 18.8263L36.4113 18.814C36.4589 18.7959 36.5055 18.7778 36.5461 18.7539C37.1253 18.3931 37.8159 18.2622 38.7076 18.2949C38.674 17.9665 38.1168 17.5572 37.9389 17.3605C37.5819 16.983 37.2038 16.589 36.8251 16.2454C36.6244 16.0655 36.2785 15.9341 36.0562 15.7871C35.7553 15.6067 35.0867 15.4264 34.9199 15.0828C34.6367 14.5411 34.4333 13.8951 34.2358 13.2425L34.182 13.0643C34.1641 13.005 34.1461 12.9457 34.1281 12.8863C33.8947 12.1004 33.6047 11.2811 33.3707 10.4764C33.2484 10.0838 33.1922 9.7393 33.0582 9.3628C32.2452 7.05242 31.0418 5.1181 29.5828 3.75775C29.1034 3.31512 28.5688 2.90549 27.9786 2.62709C27.6442 2.4789 27.2427 2.56085 26.8864 2.44715H26.6519C26.4517 2.3644 26.2846 2.05311 26.1284 1.88899C25.7835 1.54538 25.4381 1.31466 25.0256 1.0695C24.881 0.971164 24.4683 0.742167 24.3242 0.922453C24.235 0.955347 24.1898 1.00475 24.1678 1.13609C24.0791 1.33208 24.1571 1.62732 24.2124 1.80807C24.3797 2.33185 24.6134 2.64314 24.8256 3.08578C25.0144 3.47833 25.2488 3.92096 25.3827 4.34778C25.6714 5.26526 25.8059 6.28177 26.0734 7.19913C26.1727 7.54412 26.3296 7.93667 26.4741 8.24784C26.5965 8.49483 26.8191 8.6734 26.8864 8.98606C27.0206 9.31386 26.6855 10.3955 26.6079 10.739C26.3177 12.083 26.3739 13.9513 26.7081 15.1164L26.7259 15.1778L26.7438 15.24C26.8658 15.6668 26.9964 16.1262 27.3209 16.2455C27.3432 16.213 27.3209 16.2301 27.3652 16.213C27.4437 15.3112 27.4658 14.4428 27.6777 13.7372C27.8001 13.2961 28.0445 12.9842 28.2121 12.6241C28.3238 12.7222 28.3238 13.018 28.3904 13.2138C28.5354 13.7215 28.6911 14.2782 28.8699 14.7874C29.2367 15.8362 29.6495 16.8529 30.1173 17.7702C30.2739 18.0979 30.4962 18.4586 30.6967 18.7537C30.7859 18.868 30.8859 18.934 30.9531 19.0811H30.9749V19.1306C30.6407 18.9498 30.4288 18.4426 30.1623 18.1464C29.6604 17.5897 29.0594 16.7537 28.7134 15.9516C28.5688 15.491 28.4124 15.0497 28.2564 14.5914V14.5583C28.1898 14.6892 28.2121 14.8192 28.1788 15.0172C28.0341 15.8362 28.1455 16.7704 27.6442 17.0649C27.0759 17.4099 26.652 16.5082 26.4741 16.0985C25.9056 14.7385 25.7499 12.4442 26.1508 10.5921C26.2399 10.1822 26.252 9.69048 26.4074 9.36314C26.3738 9.06721 26.2184 8.98629 26.1284 8.80497C25.9725 8.49506 25.839 8.13403 25.7169 7.78985C25.4824 7.11753 25.3155 6.3142 25.1374 5.59317C25.0592 5.29873 25.0367 5.00314 24.9587 4.7244C24.8256 4.29896 24.5802 3.87214 24.3909 3.49575C24.1345 2.95477 23.388 1.90629 23.6889 0.84039ZM27.343 4.05128C27.3727 4.09506 27.4087 4.13334 27.4459 4.17105L27.4907 4.21621C27.5505 4.27695 27.6084 4.34091 27.6438 4.42801C27.7001 4.54331 27.7106 4.65712 27.7779 4.77265C27.7779 5.16658 27.7001 5.42847 27.543 5.59168C27.543 5.59168 27.5323 5.60887 27.5213 5.62492C27.4322 5.36234 27.3542 5.10114 27.2645 4.83879C27.154 4.60979 26.9978 4.42813 26.9078 4.16646H26.8862V4.13357C27.0206 4.08486 27.154 4.05128 27.343 4.05128Z" fill="#00758F"/>
</svg>
