<svg width="40" height="40" viewBox="0 0 40 40" fill="none" xmlns="http://www.w3.org/2000/svg">
<path d="M24.355 9.92126V16.7675L26.75 18.2738C26.8364 18.2928 26.926 18.2928 27.0125 18.2738L37.31 11.3313C37.3025 10.9943 37.1792 10.6702 36.9609 10.4135C36.7426 10.1567 36.4426 9.9829 36.1112 9.92126H24.355Z" fill="#0072C6"/>
<path d="M24.355 19.3213L26.5388 20.8213C26.641 20.8835 26.7584 20.9165 26.8781 20.9165C26.9978 20.9165 27.1153 20.8835 27.2175 20.8213C26.8425 21.0475 37.3088 14.0988 37.3088 14.0988V26.6813C37.336 26.9362 37.3073 27.1941 37.2245 27.4368C37.1417 27.6795 37.0069 27.9011 36.8295 28.0863C36.6521 28.2714 36.4364 28.4156 36.1975 28.5086C35.9585 28.6017 35.7021 28.6414 35.4463 28.625H24.3538L24.355 19.3213ZM13.05 16.165C12.6872 16.1633 12.3306 16.2597 12.0181 16.4441C11.7056 16.6285 11.4489 16.894 11.275 17.2125C10.8001 18.0567 10.5723 19.0175 10.6175 19.985C10.5682 20.9505 10.7963 21.91 11.275 22.75C11.4481 23.0554 11.6986 23.3098 12.0012 23.4877C12.3038 23.6656 12.6479 23.7607 12.9989 23.7635C13.35 23.7663 13.6955 23.6766 14.0009 23.5036C14.3063 23.3305 14.5608 23.0801 14.7388 22.7775C15.2122 21.9414 15.4357 20.9869 15.3825 20.0275C15.4367 19.038 15.2207 18.0524 14.7575 17.1763C14.592 16.8682 14.3455 16.6111 14.0445 16.4329C13.7436 16.2547 13.3997 16.1621 13.05 16.165Z" fill="#0072C6"/>
<path d="M2.69122 6.44375V33.2275L23.0662 37.5V2.5L2.69122 6.44375ZM16.3262 24.3637C15.9451 24.9011 15.4383 25.337 14.85 25.6335C14.2617 25.9301 13.6099 26.0782 12.9512 26.065C12.3092 26.0764 11.6738 25.9326 11.0993 25.6457C10.5247 25.3589 10.028 24.9375 9.65122 24.4175C8.75771 23.17 8.31073 21.6578 8.38247 20.125C8.30646 18.5171 8.76152 16.9287 9.67747 15.605C10.0634 15.0574 10.5782 14.6132 11.1763 14.3115C11.7745 14.0098 12.4377 13.8599 13.1075 13.875C13.7449 13.8622 14.3757 14.0061 14.9445 14.294C15.5134 14.5819 16.0028 15.005 16.37 15.5262C17.2546 16.8008 17.6939 18.3316 17.62 19.8813C17.6979 21.4776 17.2428 23.0545 16.3262 24.3637Z" fill="#0072C6"/>
</svg>
