<svg width="40" height="40" viewBox="0 0 40 40" fill="none" xmlns="http://www.w3.org/2000/svg">
<path d="M20 29.2062C29.665 29.2062 37.5 25.0845 37.5 20C37.5 14.9155 29.665 10.7937 20 10.7937C10.335 10.7937 2.5 14.9155 2.5 20C2.5 25.0845 10.335 29.2062 20 29.2062Z" fill="url(#paint0_radial_35_89)"/>
<path d="M20 28.5225C29.2873 28.5225 36.8162 24.7068 36.8162 20C36.8162 15.2931 29.2873 11.4775 20 11.4775C10.7126 11.4775 3.18372 15.2931 3.18372 20C3.18372 24.7068 10.7126 28.5225 20 28.5225Z" fill="#6280B6"/>
<path d="M23.4063 22.75L24.2401 18.4575C24.3588 18.0901 24.3784 17.6979 24.2967 17.3205C24.2151 16.9432 24.0351 16.5941 23.7751 16.3087C23.0492 15.7933 22.1605 15.56 21.2751 15.6525H19.8338L20.2476 13.5275C20.2551 13.4879 20.2538 13.4472 20.2438 13.4082C20.2338 13.3692 20.2153 13.3328 20.1896 13.3018C20.1639 13.2708 20.1317 13.2458 20.0953 13.2286C20.0589 13.2114 20.0191 13.2025 19.9788 13.2025H17.9788C17.9153 13.2025 17.8538 13.2245 17.8047 13.2649C17.7557 13.3053 17.7222 13.3614 17.7101 13.4237L16.8238 17.9812C16.7556 17.494 16.5486 17.0366 16.2276 16.6637C15.8701 16.3058 15.4389 16.03 14.9639 15.8558C14.4889 15.6816 13.9817 15.6131 13.4775 15.655H9.62505C9.56154 15.655 9.50001 15.677 9.45098 15.7174C9.40195 15.7578 9.36848 15.8139 9.3563 15.8762L7.5638 25.1012C7.55626 25.1408 7.55754 25.1816 7.56756 25.2206C7.57758 25.2596 7.59608 25.2959 7.62175 25.327C7.64741 25.358 7.67962 25.383 7.71605 25.4001C7.75249 25.4173 7.79227 25.4262 7.83255 25.4262H9.8363C9.89981 25.4263 9.96134 25.4042 10.0104 25.3638C10.0594 25.3235 10.0929 25.2673 10.105 25.205L10.5388 22.9737H12.0388C12.7011 22.9914 13.3622 22.9071 13.9988 22.7238C14.5356 22.5461 15.0265 22.252 15.4363 21.8625C15.7721 21.5566 16.0588 21.2007 16.2863 20.8075L15.9275 22.6512C15.92 22.6908 15.9213 22.7316 15.9313 22.7706C15.9413 22.8096 15.9598 22.8459 15.9855 22.877C16.0112 22.908 16.0434 22.933 16.0798 22.9501C16.1162 22.9673 16.156 22.9762 16.1963 22.9762H18.1963C18.2598 22.9763 18.3213 22.9542 18.3704 22.9138C18.4194 22.8735 18.4529 22.8173 18.4651 22.755L19.4488 17.6912H20.8163C21.3988 17.6912 21.5663 17.8075 21.6163 17.8575C21.6663 17.9075 21.7413 18.0637 21.6476 18.5687L20.8538 22.65C20.8463 22.6896 20.8475 22.7303 20.8576 22.7693C20.8676 22.8083 20.8861 22.8447 20.9117 22.8757C20.9374 22.9067 20.9696 22.9317 21.0061 22.9489C21.0425 22.9661 21.0823 22.975 21.1226 22.975H23.1475C23.2099 22.9726 23.2695 22.9489 23.3165 22.908C23.3636 22.8671 23.3952 22.8114 23.4063 22.75ZM14.1625 19.2075C14.1014 19.7323 13.8523 20.2172 13.4613 20.5725C12.9701 20.878 12.3942 21.0186 11.8176 20.9737H10.9275L11.5713 17.66H12.7226C13.5688 17.66 13.9088 17.8412 14.0463 17.9925C14.1512 18.175 14.2158 18.3779 14.2359 18.5874C14.2559 18.797 14.2309 19.0084 14.1625 19.2075ZM31.9325 16.665C31.5751 16.307 31.1439 16.0313 30.6689 15.8571C30.1939 15.6829 29.6867 15.6143 29.1826 15.6562H25.3188C25.2553 15.6562 25.1938 15.6783 25.1447 15.7187C25.0957 15.759 25.0622 15.8152 25.0501 15.8775L23.2576 25.1025C23.25 25.1421 23.2513 25.1828 23.2613 25.2218C23.2713 25.2608 23.2898 25.2972 23.3155 25.3282C23.3412 25.3592 23.3734 25.3842 23.4098 25.4014C23.4462 25.4186 23.486 25.4275 23.5263 25.4275H25.5363C25.5998 25.4275 25.6613 25.4055 25.7104 25.3651C25.7594 25.3247 25.7929 25.2686 25.805 25.2063L26.2388 22.975H27.7388C28.4011 22.9927 29.0622 22.9084 29.6988 22.725C30.2356 22.5474 30.7265 22.2533 31.1363 21.8637C31.8381 21.2312 32.311 20.3843 32.4813 19.455C32.6158 18.9796 32.6362 18.4791 32.5408 17.9943C32.4455 17.5095 32.2371 17.0541 31.9325 16.665ZM29.8488 19.2075C29.7877 19.7323 29.5386 20.2172 29.1476 20.5725C28.6552 20.8784 28.0778 21.0185 27.5 20.9725H26.6126L27.2563 17.6587H28.4075C29.2538 17.6587 29.5938 17.84 29.7313 17.9912C29.8366 18.1738 29.9015 18.3769 29.9218 18.5866C29.9421 18.7964 29.9172 19.0081 29.8488 19.2075Z" fill="white"/>
<path d="M12.7225 17.385C12.9922 17.351 13.266 17.3709 13.528 17.4434C13.79 17.5159 14.0349 17.6397 14.2488 17.8075C14.3868 18.0199 14.4748 18.2609 14.5062 18.5123C14.5376 18.7637 14.5115 19.0189 14.43 19.2587C14.3586 19.8493 14.0731 20.3933 13.6275 20.7875C13.0902 21.1336 12.455 21.2959 11.8175 21.25H10.595L11.345 17.3887L12.7225 17.385ZM7.82629 25.155H9.83629L10.3125 22.7025H12.0338C12.6674 22.7198 13.2998 22.6393 13.9088 22.4637C14.4086 22.2987 14.8655 22.0246 15.2463 21.6612C15.9055 21.0683 16.3495 20.2735 16.5088 19.4012C16.6349 18.9675 16.6571 18.5101 16.5735 18.0662C16.4899 17.6223 16.3028 17.2044 16.0275 16.8462C15.6956 16.5179 15.296 16.2659 14.8567 16.1079C14.4173 15.9499 13.9488 15.8896 13.4838 15.9312H9.62504L7.82629 25.155ZM17.9838 13.4775H19.9838L19.5 15.93H21.2763C22.0921 15.8446 22.9117 16.0519 23.5888 16.515C23.8129 16.7697 23.9661 17.0789 24.033 17.4115C24.0999 17.7441 24.0782 18.0884 23.97 18.41L23.1363 22.7025H21.1125L21.9063 18.6212C21.9616 18.4655 21.9813 18.2993 21.964 18.1349C21.9467 17.9705 21.8928 17.8121 21.8063 17.6712C21.5168 17.4639 21.1593 17.3745 20.8063 17.4212H19.2125L18.185 22.7062H16.185L17.9838 13.4775ZM28.4088 17.385C28.6785 17.351 28.9522 17.3709 29.2142 17.4434C29.4762 17.5159 29.7212 17.6397 29.935 17.8075C30.073 18.0199 30.161 18.2609 30.1924 18.5123C30.2238 18.7637 30.1978 19.0189 30.1163 19.2587C30.0448 19.8493 29.7593 20.3933 29.3138 20.7875C28.7754 21.1344 28.1388 21.2967 27.5 21.25H26.2775L27.0275 17.3887L28.4088 17.385ZM23.5125 25.155H25.5225L25.9988 22.7025H27.72C28.3536 22.7198 28.986 22.6393 29.595 22.4637C30.0949 22.2987 30.5517 22.0246 30.9325 21.6612C31.5917 21.0683 32.0357 20.2735 32.195 19.4012C32.3212 18.9675 32.3433 18.5101 32.2597 18.0662C32.1761 17.6223 31.9891 17.2044 31.7138 16.8462C31.3818 16.5179 30.9823 16.2659 30.5429 16.1079C30.1036 15.9499 29.6351 15.8896 29.17 15.9312H25.305L23.5125 25.155Z" fill="#000004"/>
<defs>
<radialGradient id="paint0_radial_35_89" cx="0" cy="0" r="1" gradientUnits="userSpaceOnUse" gradientTransform="translate(13.0075 14.0312) scale(22.98 22.98)">
<stop stop-color="white"/>
<stop offset="0.5" stop-color="#4C6B96"/>
<stop offset="1" stop-color="#231F20"/>
</radialGradient>
</defs>
</svg>
