<svg width="40" height="40" viewBox="0 0 40 40" fill="none" xmlns="http://www.w3.org/2000/svg">
<path d="M39.845 23.9524C39.6052 23.248 38.9769 22.7574 38.1644 22.6397C37.7812 22.5843 37.3425 22.6079 36.8233 22.7117C35.9183 22.8927 35.2469 22.9617 34.7569 22.975C36.6064 19.947 38.1103 16.494 38.9761 13.2435C40.3761 7.98759 39.628 5.5932 38.7538 4.51017C36.4402 1.6435 33.0647 0.103499 28.9925 0.0563777C26.8202 0.0306201 24.9131 0.446529 23.9183 0.74562C22.992 0.587135 21.9961 0.49865 20.9511 0.482287C18.9922 0.451984 17.2614 0.866075 15.7825 1.71714C14.9638 1.44865 13.6497 1.07017 12.1322 0.82865C8.56313 0.260469 5.68656 0.703196 3.5825 2.14456C1.03469 3.88971 -0.146404 6.92183 0.0720335 11.1567C0.141409 12.5012 0.917034 16.5921 2.13828 20.4718C2.84016 22.7018 3.5886 24.5537 4.36281 25.9764C5.46078 27.9938 6.63563 29.1818 7.95453 29.6085C8.69375 29.8473 10.0369 30.0146 11.4495 28.8736C11.6286 29.084 11.8675 29.2929 12.1845 29.487C12.5872 29.7332 13.0795 29.9344 13.5713 30.0537C15.3433 30.4832 17.0031 30.3758 18.4192 29.7737C18.428 30.0179 18.4347 30.2512 18.4403 30.4527C18.4497 30.7796 18.4591 31.1 18.4714 31.3997C18.5553 33.4261 18.6975 35.0017 19.1188 36.1041C19.1419 36.1647 19.173 36.2571 19.2058 36.3552C19.4159 36.9791 19.7673 38.0237 20.6614 38.8417C21.5872 39.6891 22.707 39.949 23.7327 39.949C24.247 39.949 24.7378 39.8835 25.1683 39.7941C26.7027 39.4752 28.4453 38.9894 29.7059 37.2488C30.8978 35.6033 31.4772 33.125 31.582 29.22C31.5956 29.1096 31.6081 29.0041 31.6202 28.9037L31.6452 28.6973L31.9259 28.7212L31.9983 28.7259C33.5611 28.795 35.472 28.4736 36.6456 27.945C37.573 27.5277 40.5447 26.0064 39.845 23.9524Z" fill="black"/>
<path d="M37.1728 24.3518C32.5259 25.2814 32.2064 23.7558 32.2064 23.7558C37.1127 16.6962 39.1638 7.73516 37.3939 5.54198C32.5652 -0.440599 24.2066 2.3888 24.067 2.46213L24.0222 2.47001C23.1041 2.28516 22.0767 2.17516 20.9219 2.15683C18.8194 2.12349 17.2244 2.69137 16.0141 3.58137C16.0141 3.58137 1.10313 -2.3753 1.79672 11.0729C1.94422 13.9338 6.02547 32.7203 10.8933 27.0459C12.6725 24.9709 14.3917 23.2165 14.3917 23.2165C15.2455 23.7665 16.2677 24.0471 17.3392 23.9464L17.4225 23.8779C17.3966 24.1355 17.4084 24.3874 17.4558 24.6858C16.2017 26.0444 16.5703 26.2829 14.0634 26.7833C11.5267 27.2903 13.0169 28.1927 13.9898 28.4288C15.1694 28.7147 17.8981 29.1199 19.7419 26.617L19.6684 26.9026C20.1597 27.2843 20.5047 29.3849 20.4469 31.2893C20.3891 33.1935 20.3505 34.5009 20.7375 35.5221C21.1248 36.5433 21.5106 38.8411 24.8063 38.1564C27.5598 37.5841 28.9869 36.1012 29.1855 33.6276C29.3263 31.8691 29.6452 32.1291 29.6652 30.5568L29.9209 29.8126C30.2158 27.4288 29.9678 26.6597 31.6642 27.0174L32.0767 27.0526C33.3252 27.1076 34.9595 26.8577 35.9188 26.4255C37.9841 25.4961 39.2091 23.9441 37.1725 24.3518H37.1728Z" fill="#336791"/>
<path d="M16.8869 12.3523C16.4681 12.2957 16.0889 12.348 15.897 12.4889C15.7892 12.5682 15.7558 12.66 15.7467 12.7232C15.7226 12.8906 15.8436 13.0757 15.918 13.1712C16.1283 13.4415 16.4355 13.6273 16.7395 13.6682C16.7836 13.6742 16.8275 13.677 16.8711 13.677C17.3781 13.677 17.8392 13.2941 17.8798 13.0115C17.9306 12.6576 17.4008 12.4215 16.8869 12.3523ZM30.7594 12.3635C30.7194 12.0861 30.2103 12.007 29.7272 12.0721C29.2447 12.1373 28.7769 12.3485 28.8159 12.6265C28.8472 12.8427 29.2498 13.2118 29.7264 13.2118C29.7667 13.2118 29.8073 13.2092 29.8483 13.2036C30.1664 13.1609 30.3998 12.965 30.5108 12.8521C30.6795 12.68 30.7773 12.4882 30.7594 12.3635Z" fill="white"/>
<path d="M38.7191 24.2462C38.5419 23.7267 37.9716 23.5596 37.0241 23.7493C34.2108 24.3123 33.2033 23.9223 32.8725 23.6861C35.0592 20.4558 36.8581 16.5509 37.8286 12.9077C38.2883 11.182 38.5422 9.57925 38.563 8.27289C38.5859 6.8391 38.3341 5.78547 37.8147 5.14183C35.7206 2.54713 32.6472 1.15531 28.9269 1.11713C26.3692 1.08925 24.2083 1.72395 23.7894 1.90243C22.9072 1.68971 21.9455 1.5591 20.8984 1.54244C18.9784 1.51228 17.3187 1.95804 15.9447 2.86668C15.3478 2.65122 13.8053 2.13774 11.9189 1.84304C8.65765 1.33395 6.06608 1.71971 4.21671 2.99016C2.00999 4.50622 0.99124 7.21622 1.18858 11.0447C1.25499 12.3327 2.01187 16.2952 3.20624 20.0899C4.77843 25.0844 6.48749 27.9118 8.28562 28.4935C8.49608 28.5615 8.73874 28.6091 9.0064 28.6091C9.66233 28.6091 10.4666 28.3224 11.3033 27.347C12.3238 26.1598 13.3795 25.0014 14.4691 23.8733C15.1759 24.2412 15.9525 24.4467 16.7467 24.4673C16.7483 24.4874 16.7503 24.5076 16.7522 24.5276C16.6155 24.6857 16.4816 24.8461 16.3506 25.0086C15.8003 25.6861 15.6858 25.8271 13.9144 26.1808C13.4105 26.2817 12.0722 26.5491 12.0525 27.4588C12.0312 28.4527 13.6345 28.8702 13.8172 28.9144C14.4537 29.069 15.067 29.1452 15.6519 29.1452C17.0742 29.1452 18.3259 28.6918 19.3262 27.8147C19.2955 31.358 19.4478 34.8496 19.8866 35.9133C20.2459 36.7843 21.1237 38.9126 23.8966 38.9124C24.3034 38.9124 24.7512 38.8665 25.2439 38.7641C28.1378 38.1626 29.3945 36.9223 29.8806 34.1879C30.1408 32.7265 30.5872 29.237 30.7972 27.3652C31.2403 27.4993 31.8108 27.5606 32.4275 27.5605C33.7137 27.5605 35.198 27.2955 36.1287 26.8765C37.1744 26.4056 39.0612 25.2502 38.7191 24.2462ZM31.8275 11.5977C31.818 12.1503 31.7395 12.652 31.6564 13.1756C31.5669 13.7388 31.4744 14.3211 31.4511 15.0279C31.4281 15.7158 31.5167 16.4309 31.6023 17.1226C31.7755 18.5196 31.9531 19.9577 31.2655 21.3768C31.1512 21.1806 31.0495 20.9777 30.9608 20.7694C30.8753 20.5685 30.6897 20.2458 30.4326 19.7991C29.4328 18.0603 27.0914 13.9885 28.29 12.327C28.647 11.8324 29.5531 11.3239 31.8275 11.5977ZM29.0706 2.23607C32.4041 2.30744 35.0409 3.51668 36.9078 5.83001C38.3397 7.6044 36.763 15.6782 32.1984 22.6435C32.1525 22.5869 32.1064 22.5305 32.06 22.4743L32.0022 22.4043C33.1817 20.5153 32.9511 18.6464 32.7458 16.9894C32.6614 16.3094 32.5817 15.6671 32.602 15.0638C32.623 14.4244 32.7101 13.8759 32.7945 13.3456C32.8981 12.6921 33.0036 12.0159 32.9745 11.2188C32.9962 11.1352 33.005 11.0364 32.9936 10.9191C32.9194 10.1547 32.0194 7.86698 30.185 5.79637C29.1816 4.6638 27.7183 3.39637 25.7203 2.54153C26.5797 2.3688 27.7548 2.20774 29.0706 2.23607ZM10.4178 26.633C9.49593 27.7079 8.85937 27.5018 8.64999 27.4343C7.28593 26.993 5.70312 24.1973 4.30765 19.764C3.10015 15.9279 2.39452 12.0705 2.33858 10.9888C2.16233 7.56789 3.01749 5.1838 4.88046 3.90259C7.91233 1.81774 12.897 3.06562 14.9 3.6985C14.8712 3.72607 14.8412 3.75183 14.8128 3.77986C11.5259 6.99865 11.6039 12.498 11.612 12.8343C11.6117 12.964 11.623 13.1476 11.6383 13.4002C11.6948 14.3252 11.8001 16.0467 11.5189 17.9962C11.2576 19.8079 11.8336 21.5811 13.0987 22.8612C13.2286 22.9923 13.3651 23.1172 13.5076 23.2352C12.9445 23.82 11.7206 25.1133 10.4178 26.633ZM13.9301 22.0886C12.9105 21.0568 12.4473 19.6217 12.6594 18.1508C12.9562 16.0914 12.8467 14.2977 12.7878 13.3341C12.7795 13.1993 12.7722 13.0811 12.768 12.9879C13.2481 12.575 15.4733 11.419 17.0601 11.7715C17.7842 11.9323 18.2255 12.4105 18.4089 13.2329C19.3583 17.4909 18.5345 19.2656 17.8726 20.6918C17.7362 20.9856 17.6073 21.2633 17.4973 21.5506L17.412 21.7727C17.1961 22.3343 16.9951 22.8564 16.8706 23.3521C15.7866 23.3491 14.732 22.9 13.9301 22.0885V22.0886ZM14.0966 27.8311C13.78 27.7544 13.4953 27.6212 13.3283 27.5108C13.4678 27.4471 13.7161 27.3605 14.1467 27.2744C16.2306 26.8585 16.5525 26.5649 17.2553 25.6996C17.4164 25.5011 17.5991 25.2762 17.852 25.0023L17.8523 25.002C18.2291 24.5929 18.4014 24.6623 18.7139 24.788C18.9672 24.8896 19.2139 25.1974 19.3139 25.5362C19.3612 25.6962 19.4144 25.9999 19.2405 26.2362C17.7723 28.2296 15.633 28.204 14.0966 27.8311ZM25.0026 37.6723C22.4533 38.202 21.5506 36.9406 20.9558 35.4986C20.5719 34.5677 20.3831 30.3699 20.517 25.7339C20.5187 25.6723 20.5097 25.6127 20.4922 25.5567C20.4765 25.446 20.4527 25.3365 20.4209 25.2291C20.2219 24.5546 19.7367 23.9903 19.1547 23.7564C18.9234 23.6635 18.4991 23.493 17.9891 23.6196C18.0978 23.185 18.2864 22.6943 18.4909 22.1629L18.5767 21.9394C18.6733 21.6874 18.7945 21.4264 18.9226 21.15C19.6153 19.6579 20.5639 17.6141 19.5344 12.997C19.1487 11.2676 17.8609 10.423 15.9087 10.6193C14.7384 10.7367 13.6676 11.1946 13.1336 11.4571C13.0187 11.5135 12.9137 11.568 12.8156 11.6211C12.9647 9.87865 13.5278 6.62228 15.6344 4.56198C16.9608 3.26501 18.7272 2.6244 20.8794 2.65895C25.12 2.72622 27.8394 4.83653 29.3741 6.59516C30.6966 8.11047 31.4126 9.63698 31.6984 10.4603C29.5492 10.2483 28.0875 10.6597 27.3466 11.687C25.7345 13.9215 28.2284 18.2585 29.427 20.3429C29.6469 20.7249 29.8366 21.055 29.8962 21.1953C30.2866 22.1126 30.7919 22.725 31.1608 23.172C31.2739 23.309 31.3836 23.4418 31.467 23.5579C30.8161 23.7399 29.6469 24.1603 29.7534 26.262C29.6675 27.3165 29.0564 32.2538 28.7459 33.9982C28.3361 36.3027 27.4616 37.1611 25.0026 37.6724V37.6723ZM35.6439 25.8638C34.9783 26.1633 33.8644 26.388 32.8062 26.4364C31.6375 26.4894 31.0425 26.3094 30.9025 26.1986C30.8369 24.889 31.3395 24.7521 31.8716 24.6073C31.9551 24.5846 32.0367 24.5623 32.1155 24.5356C32.1644 24.5743 32.218 24.6126 32.2767 24.6502C33.2161 25.2514 34.8916 25.3162 37.257 24.8427L37.283 24.8377C36.9639 25.127 36.418 25.5152 35.6439 25.8638Z" fill="white"/>
</svg>
