<svg width="40" height="40" viewBox="0 0 40 40" fill="none" xmlns="http://www.w3.org/2000/svg">
<path d="M1.07166 2.45833C1.07166 3.815 2.18499 4.91667 3.55499 4.91667H24.15C26.4967 4.91667 28.43 5.63333 29.95 7.06667C31.4678 8.50111 32.2267 10.3456 32.2267 12.6C32.2267 14.6833 31.4672 16.39 29.9483 17.72C28.4305 19.0189 26.4978 19.6678 24.15 19.6667H15.2C13.8267 19.6667 12.715 20.7667 12.715 22.125C12.715 23.4833 13.8267 24.5833 15.2 24.5833H25.0833L33.9867 38.72C34.5389 39.5733 35.3155 40 36.3167 40C37.4222 40 38.1989 39.5733 38.6467 38.72C39.0944 37.8311 39.0083 36.8922 38.3883 35.9033L30.4667 23.3033C32.6067 22.3467 34.2978 20.9467 35.54 19.1033C36.7833 17.2256 37.405 15.0578 37.405 12.6C37.405 10.1067 36.835 7.92111 35.695 6.04333C34.5917 4.16556 33.0389 2.69722 31.0367 1.63833C29.0344 0.546111 26.7389 0 24.15 0H3.55666C2.18499 0 1.07166 1.1 1.07166 2.45833Z" fill="black"/>
</svg>
