<svg width="40" height="40" viewBox="0 0 40 40" fill="none" xmlns="http://www.w3.org/2000/svg">
<path d="M36.0075 3.75H12.1313C11.9356 3.74984 11.7418 3.78822 11.561 3.86294C11.3801 3.93767 11.2158 4.04729 11.0773 4.18553C10.9388 4.32377 10.8289 4.48794 10.7539 4.66865C10.6789 4.84936 10.6402 5.04308 10.64 5.23875V11.875L24.4763 15.9375L37.5 11.875V5.23875C37.4998 5.04298 37.4611 4.84915 37.386 4.66836C37.3109 4.48757 37.2009 4.32335 37.0623 4.18509C36.9237 4.04683 36.7592 3.93724 36.5782 3.86258C36.3972 3.78793 36.2033 3.74967 36.0075 3.75Z" fill="#41A5EE"/>
<path d="M37.5 11.875H10.64V20L24.4763 22.4375L37.5 20V11.875Z" fill="#2B7CD3"/>
<path d="M10.64 20V28.125L23.6625 29.75L37.5 28.125V20H10.64Z" fill="#185ABD"/>
<path d="M12.1313 36.25H36.0063C36.2021 36.2505 36.3962 36.2124 36.5773 36.1378C36.7585 36.0632 36.9231 35.9536 37.0618 35.8154C37.2006 35.6771 37.3107 35.5128 37.3859 35.3319C37.4611 35.1511 37.4998 34.9571 37.5 34.7613V28.125H10.64V34.7613C10.6402 34.9569 10.6789 35.1506 10.7539 35.3314C10.8289 35.5121 10.9388 35.6762 11.0773 35.8145C11.2158 35.9527 11.3801 36.0623 11.561 36.1371C11.7418 36.2118 11.9356 36.2502 12.1313 36.25Z" fill="#103F91"/>
<path opacity="0.1" d="M20.5425 10.25H10.64V30.5625H20.5425C20.9371 30.5605 21.315 30.4032 21.5944 30.1245C21.8737 29.8458 22.0321 29.4683 22.035 29.0738V11.7387C22.0321 11.3442 21.8737 10.9667 21.5944 10.688C21.315 10.4093 20.9371 10.252 20.5425 10.25Z" fill="black"/>
<path opacity="0.2" d="M19.7288 11.0625H10.64V31.375H19.7288C20.1233 31.373 20.5013 31.2157 20.7806 30.937C21.06 30.6583 21.2183 30.2808 21.2213 29.8862V12.5512C21.2183 12.1567 21.06 11.7792 20.7806 11.5005C20.5013 11.2218 20.1233 11.0645 19.7288 11.0625Z" fill="black"/>
<path opacity="0.2" d="M19.7288 11.0625H10.64V29.75H19.7288C20.1233 29.748 20.5013 29.5907 20.7806 29.312C21.06 29.0333 21.2183 28.6558 21.2213 28.2612V12.5512C21.2183 12.1567 21.06 11.7792 20.7806 11.5005C20.5013 11.2218 20.1233 11.0645 19.7288 11.0625Z" fill="black"/>
<path opacity="0.2" d="M18.915 11.0625H10.64V29.75H18.915C19.3096 29.748 19.6875 29.5907 19.9669 29.312C20.2462 29.0333 20.4046 28.6558 20.4075 28.2612V12.5512C20.4046 12.1567 20.2462 11.7792 19.9669 11.5005C19.6875 11.2218 19.3096 11.0645 18.915 11.0625Z" fill="black"/>
<path d="M3.9925 11.0625H18.915C19.3103 11.0622 19.6895 11.2188 19.9694 11.498C20.2493 11.7771 20.4068 12.156 20.4075 12.5513V27.4488C20.4068 27.844 20.2493 28.2229 19.9694 28.5021C19.6895 28.7812 19.3103 28.9378 18.915 28.9375H3.9925C3.79673 28.9378 3.60281 28.8996 3.42182 28.8249C3.24084 28.7503 3.07634 28.6407 2.93774 28.5024C2.79913 28.3642 2.68913 28.1999 2.61402 28.0191C2.53891 27.8384 2.50016 27.6445 2.5 27.4488V12.5513C2.50016 12.3555 2.53891 12.1617 2.61402 11.9809C2.68913 11.8001 2.79913 11.6358 2.93774 11.4976C3.07634 11.3593 3.24084 11.2497 3.42182 11.1751C3.60281 11.1004 3.79673 11.0622 3.9925 11.0625Z" fill="url(#paint0_linear_30_445)"/>
<path d="M8.62499 22.485C8.65374 22.715 8.67374 22.915 8.68249 23.0862H8.71749C8.72999 22.9237 8.75749 22.7275 8.79874 22.4987C8.83999 22.27 8.87624 22.0762 8.90999 21.9175L10.4787 15.1587H12.5087L14.1337 21.8162C14.2284 22.2281 14.296 22.6456 14.3362 23.0662H14.3637C14.3936 22.6568 14.45 22.2497 14.5325 21.8475L15.8312 15.15H17.6775L15.3975 24.835H13.2387L11.6925 18.4275C11.6475 18.2425 11.5967 18.0017 11.54 17.705C11.4833 17.4083 11.4483 17.1917 11.435 17.055H11.4087C11.3912 17.2125 11.3562 17.4462 11.3037 17.7562C11.2512 18.0675 11.21 18.2962 11.1787 18.4462L9.72499 24.8387H7.52999L5.23749 15.1587H7.11249L8.52624 21.9312C8.56843 22.1141 8.60139 22.2989 8.62499 22.485Z" fill="white"/>
<defs>
<linearGradient id="paint0_linear_30_445" x1="5.6175" y1="9.8925" x2="17.29" y2="30.1075" gradientUnits="userSpaceOnUse">
<stop stop-color="#2368C4"/>
<stop offset="0.5" stop-color="#1A5DBE"/>
<stop offset="1" stop-color="#1146AC"/>
</linearGradient>
</defs>
</svg>
